<svg width="18" height="18" viewBox="0 0 18 18" fill="none" xmlns="http://www.w3.org/2000/svg">
<path d="M15.4167 4.41669H2.58333C1.57081 4.41669 0.75 5.2375 0.75 6.25002V14.5C0.75 15.5125 1.57081 16.3334 2.58333 16.3334H15.4167C16.4292 16.3334 17.25 15.5125 17.25 14.5V6.25002C17.25 5.2375 16.4292 4.41669 15.4167 4.41669Z" stroke="#64748B" stroke-width="1.5" stroke-linecap="round" stroke-linejoin="round"/>
<path d="M5.33301 4.41667V2.58333C5.33301 2.0971 5.52616 1.63079 5.86998 1.28697C6.2138 0.943154 6.68011 0.75 7.16634 0.75H10.833C11.3192 0.75 11.7856 0.943154 12.1294 1.28697C12.4732 1.63079 12.6663 2.0971 12.6663 2.58333V4.41667" stroke="#64748B" stroke-width="1.5" stroke-linecap="round" stroke-linejoin="round"/>
<path d="M9 9V9.00917" stroke="#64748B" stroke-width="2" stroke-linecap="round" stroke-linejoin="round"/>
<path d="M0.75 9.91669C3.30895 11.2061 6.13453 11.8778 9 11.8778C11.8655 11.8778 14.6911 11.2061 17.25 9.91669" stroke="#64748B" stroke-width="1.5" stroke-linecap="round" stroke-linejoin="round"/>
</svg>
