<svg width="18" height="20" viewBox="0 0 18 20" fill="none" xmlns="http://www.w3.org/2000/svg">
<path fill-rule="evenodd" clip-rule="evenodd" d="M5.3499 5.49999C5.3499 3.85165 6.88718 2.34999 8.9999 2.34999C11.1126 2.34999 12.6499 3.85165 12.6499 5.49999C12.6499 7.14834 11.1126 8.64999 8.9999 8.64999C6.88718 8.64999 5.3499 7.14834 5.3499 5.49999ZM8.9999 0.649994C6.14206 0.649994 3.6499 2.73006 3.6499 5.49999C3.6499 8.26993 6.14206 10.35 8.9999 10.35C11.8577 10.35 14.3499 8.26993 14.3499 5.49999C14.3499 2.73006 11.8577 0.649994 8.9999 0.649994ZM2.3499 16C2.3499 15.4299 2.83852 14.7628 4.17541 14.196C5.4497 13.6558 7.20534 13.35 8.9999 13.35C10.7752 13.35 12.5297 13.7073 13.8109 14.2767C14.4525 14.5619 14.9354 14.8825 15.2459 15.2019C15.5527 15.5175 15.6499 15.7849 15.6499 16C15.6499 16.0494 15.633 16.1781 15.3874 16.3821C15.1344 16.5924 14.7112 16.8153 14.0951 17.0149C12.8703 17.4116 11.0918 17.65 8.9999 17.65C6.908 17.65 5.12955 17.4116 3.90469 17.0149C3.28863 16.8153 2.8654 16.5924 2.61236 16.3821C2.36682 16.1781 2.3499 16.0494 2.3499 16ZM8.9999 11.65C7.04447 11.65 5.0501 11.9788 3.51189 12.6309C2.03628 13.2564 0.649902 14.3393 0.649902 16C0.649902 16.7153 1.03477 17.2815 1.52584 17.6896C2.0094 18.0914 2.6576 18.3979 3.38082 18.6322C4.83454 19.103 6.80609 19.35 8.9999 19.35C11.1937 19.35 13.1653 19.103 14.619 18.6322C15.3422 18.3979 15.9904 18.0914 16.474 17.6896C16.965 17.2815 17.3499 16.7153 17.3499 16C17.3499 15.2151 16.9783 14.545 16.4648 14.0169C15.955 13.4925 15.266 13.0631 14.5014 12.7233C12.9701 12.0427 10.9746 11.65 8.9999 11.65Z" fill="currentcolor"/>
</svg>
